<?xml version="1.0" encoding="utf-8"?>
<!-- Generator: Adobe Illustrator 28.4.1, SVG Export Plug-In . SVG Version: 6.00 Build 0)  -->
<svg version="1.1" id="Layer_1" xmlns="http://www.w3.org/2000/svg" xmlns:xlink="http://www.w3.org/1999/xlink" x="0px" y="0px"
	 viewBox="0 0 625.02 718.98" style="enable-background:new 0 0 625.02 718.98;" xml:space="preserve">
<style type="text/css">
	.st0{fill:url(#SVGID_1_);}
	.st1{fill:url(#SVGID_00000018946907871047245360000003953719962518343059_);}
	.st2{fill:url(#SVGID_00000107561974696310716820000015075086551028235161_);}
	.st3{fill:url(#SVGID_00000043425367636211265000000017399211945019466161_);}
	.st4{fill:url(#SVGID_00000085970557955271854790000015719692137761266827_);}
	.st5{fill:url(#SVGID_00000068650207956054917990000006682873052572201129_);}
</style>
<g>
	<path d="M782.92-224.55v-402.05h135.55c45.18,0,80.7,10.63,106.54,31.88c25.85,21.25,38.77,52.94,38.77,95.06
		c0,42.5-12.92,74.67-38.77,96.49c-25.85,21.83-61.37,32.74-106.54,32.74h-55.14v145.89H782.92z M863.33-442.8h50.54
		c21.83,0,38.67-4.59,50.54-13.78c11.86-9.19,17.81-23.35,17.81-42.5c0-19.14-5.94-33.21-17.81-42.21
		c-11.87-8.99-28.72-13.5-50.54-13.5h-50.54V-442.8z"/>
	<path d="M1203.35-217.65c-21.45,0-40.78-4.98-58.01-14.93s-30.83-24.21-40.78-42.79c-9.96-18.57-14.93-40.29-14.93-65.19v-182.64
		h77.54v163.69c0,25.66,5.17,44.42,15.51,56.29c10.34,11.87,25.07,17.81,44.23,17.81c16.46,0,30.92-5.93,43.36-17.81
		c12.44-11.86,18.67-30.63,18.67-56.29v-163.69h77.54v298.66h-75.24v-44.8c-7.28,17.23-17.9,30.15-31.88,38.77
		C1245.36-221.96,1226.7-217.65,1203.35-217.65z"/>
	<path d="M1412.41-224.55v-419.28h77.54v419.28H1412.41z"/>
	<path d="M1638.12-217.08c-50.17,0-91.52-17.42-124.06-52.27l52.27-47.67c21.83,24.51,45.18,36.76,70.07,36.76
		c13.4,0,23.64-2.96,30.73-8.9c7.08-5.93,10.63-13.3,10.63-22.11c0-5.36-1.25-9.95-3.73-13.78c-2.5-3.82-7.66-7.47-15.51-10.91
		c-7.85-3.45-19.63-6.89-35.32-10.34c-26.81-6.51-46.72-14.55-59.73-24.12c-13.02-9.57-21.64-20.29-25.85-32.16
		c-4.22-11.86-6.32-24.12-6.32-36.76c0-26.03,9.85-47.76,29.58-65.19c19.72-17.42,47-26.13,81.84-26.13
		c24.12,0,44.8,3.64,62.03,10.91c17.23,7.28,33.5,20.87,48.82,40.78l-56.29,43.08c-7.28-11.49-15.42-19.72-24.41-24.7
		c-9-4.97-18.48-7.47-28.43-7.47c-10.72,0-19.63,2.11-26.71,6.32c-7.09,4.22-10.62,10.91-10.62,20.1c0,4.98,2.3,9.86,6.89,14.65
		c4.59,4.79,15.7,9.48,33.31,14.07c29.09,7.28,51.31,15.79,66.62,25.56c15.31,9.76,25.85,20.78,31.59,33.03
		c5.74,12.26,8.62,25.85,8.62,40.78c0,18.38-5.08,34.85-15.22,49.39c-10.15,14.56-23.93,26.04-41.35,34.46
		C1680.14-221.3,1660.33-217.08,1638.12-217.08z"/>
	<path d="M1927.6-217.08c-30.64,0-57.63-7.09-80.98-21.25c-23.36-14.16-41.45-33.02-54.28-56.57
		c-12.83-23.55-19.24-49.68-19.24-78.4c0-28.72,6.69-55.04,20.1-78.97c13.4-23.93,31.68-42.98,54.85-57.15
		c23.16-14.16,49.68-21.25,79.55-21.25s56.19,7.09,78.97,21.25c22.78,14.17,40.58,33.22,53.42,57.15
		c12.82,23.93,19.24,50.26,19.24,78.97c0,4.22-0.2,8.62-0.57,13.21c-0.39,4.59-0.96,9.39-1.72,14.36h-223.42
		c4.21,17.62,12.73,31.98,25.56,43.08c12.82,11.11,29,16.66,48.53,16.66c16.84,0,31.49-3.82,43.94-11.49
		c12.44-7.66,22.11-17.23,29-28.72l60.31,45.37c-11.87,18.77-29.68,34.08-53.42,45.95C1983.69-223.02,1957.08-217.08,1927.6-217.08z
		 M1926.45-464.05c-18.38,0-34.08,5.56-47.1,16.66c-13.02,11.11-21.64,25.66-25.85,43.65h147.61c-4.22-16.46-12.92-30.63-26.13-42.5
		C1961.77-458.11,1945.59-464.05,1926.45-464.05z"/>
	<path d="M2238.32-217.08c-31.79,0-60.98-6.8-87.59-20.39c-26.62-13.59-48.73-35.7-66.34-66.34l69.5-44.23
		c10.34,20.68,23.35,35.71,39.06,45.09c15.7,9.39,32.35,14.07,49.97,14.07c18.76,0,33.5-4.21,44.23-12.64
		c10.71-8.42,16.08-19.53,16.08-33.31c0-13.4-4.22-24.12-12.64-32.16c-8.43-8.04-19.63-14.55-33.6-19.53
		c-13.98-4.97-29.2-9.57-45.66-13.78c-31.02-8.04-55.71-21.34-74.09-39.92c-18.38-18.57-27.57-42.98-27.57-73.23
		c0-24.12,5.93-45.18,17.81-63.18c11.86-17.99,28.43-31.97,49.68-41.93c21.25-9.95,46.04-14.93,74.38-14.93
		c31.39,0,57.62,6.52,78.69,19.53c21.05,13.02,39.06,31.4,53.99,55.14l-68.92,42.5c-9.58-15.7-19.53-27.18-29.87-34.46
		c-10.34-7.27-22.97-10.91-37.91-10.91c-16.08,0-29.39,4.02-39.92,12.06c-10.54,8.04-15.79,18.77-15.79,32.16
		c0,14.93,6.22,25.76,18.67,32.45c12.44,6.7,27.47,12.73,45.09,18.09c11.86,3.83,25.17,8.33,39.92,13.5
		c14.74,5.17,29,12.26,42.79,21.25c13.79,9,25.07,20.96,33.89,35.9c8.8,14.93,13.21,33.89,13.21,56.86
		c0,24.12-5.94,45.37-17.81,63.75c-11.87,18.38-28.72,32.74-50.54,43.08S2268.95-217.08,2238.32-217.08z"/>
	<path d="M2561.12-217.08c-30.64,0-57.63-7.09-80.98-21.25c-23.36-14.16-41.45-33.02-54.28-56.57
		c-12.83-23.55-19.24-49.68-19.24-78.4c0-28.72,6.69-55.04,20.1-78.97c13.4-23.93,31.68-42.98,54.85-57.15
		c23.16-14.16,49.68-21.25,79.55-21.25s56.19,7.09,78.97,21.25c22.78,14.17,40.58,33.22,53.42,57.15
		c12.82,23.93,19.24,50.26,19.24,78.97c0,4.22-0.2,8.62-0.57,13.21c-0.39,4.59-0.96,9.39-1.72,14.36h-223.42
		c4.21,17.62,12.73,31.98,25.56,43.08c12.82,11.11,29,16.66,48.53,16.66c16.84,0,31.49-3.82,43.94-11.49
		c12.44-7.66,22.11-17.23,29-28.72l60.31,45.37c-11.87,18.77-29.68,34.08-53.42,45.95C2617.21-223.02,2590.6-217.08,2561.12-217.08z
		 M2559.97-464.05c-18.38,0-34.08,5.56-47.1,16.66c-13.02,11.11-21.64,25.66-25.85,43.65h147.61c-4.22-16.46-12.92-30.63-26.13-42.5
		C2595.29-458.11,2579.11-464.05,2559.97-464.05z"/>
	<path d="M2878.74-217.08c-27.19,0-51.98-6.99-74.38-20.96c-22.4-13.97-40.2-32.74-53.41-56.29c-13.21-23.55-19.82-49.68-19.82-78.4
		c0-21.44,3.82-41.64,11.49-60.59c7.65-18.95,18.18-35.61,31.59-49.97c13.4-14.36,29-25.65,46.81-33.89
		c17.81-8.23,37.05-12.35,57.72-12.35c26.03,0,46.33,4.88,60.88,14.65c14.55,9.76,25.85,22.69,33.89,38.77v-47.1h76.96v298.66
		h-75.24v-48.82c-8.04,16.85-19.44,30.44-34.17,40.78C2926.31-222.25,2905.53-217.08,2878.74-217.08z M2891.37-287.15
		c17.23,0,32.07-3.92,44.51-11.77c12.44-7.84,22.11-18.28,29-31.3c6.89-13.01,10.34-27.18,10.34-42.5c0-15.7-3.45-30.05-10.34-43.08
		c-6.89-13.01-16.57-23.55-29-31.59c-12.45-8.04-27.28-12.06-44.51-12.06c-16.47,0-30.92,3.93-43.36,11.77
		c-12.45,7.85-22.11,18.29-29,31.3c-6.89,13.02-10.34,27.38-10.34,43.08c0,14.93,3.45,29,10.34,42.21
		c6.89,13.21,16.56,23.84,29,31.88C2860.45-291.17,2874.9-287.15,2891.37-287.15z"/>
	<path d="M3096.41-224.55v-419.28h77.54v419.28H3096.41z"/>
</g>
<g>
	<g>
		<linearGradient id="SVGID_1_" gradientUnits="userSpaceOnUse" x1="80.351" y1="-495.356" x2="523.9016" y2="-495.356">
			<stop  offset="0" style="stop-color:#111A18"/>
			<stop  offset="1" style="stop-color:#3F5B55"/>
		</linearGradient>
		<path class="st0" d="M523.26-420.27c-0.13,6.55-3.85,16.04-8.93,19.01c-80.89,47.35-162.17,94.01-243.44,140.7l-1.99,1.15
			l-24.95,14.4l-2.98,1.72v-3.44c0-42.21-0.4-83.62,0.6-125c0.1-4.36,7.86-9.56,13.09-12.61c53.15-30.97,106.5-61.58,162.93-94.1
			c-71.8-45.32-140.27-88.8-209.26-131.44c-4.34-2.68-13.77-0.55-19.14,2.41c-34.9,19.22-69.33,39.29-107.98,61.4v-60.55
			c0-15.74-0.38-31.58-0.82-47.23c-0.55-19.39,4.81-29.73,21.98-38.5c30.29-15.47,59.37-33.36,88.59-50.85
			c8.81-5.29,15.22-5.95,24.6,0.04c98.26,62.79,197.02,124.78,295.19,187.7c6.21,3.99,12.01,13.79,12.25,21.08
			C524.25-496.37,524.06-458.3,523.26-420.27z"/>
		
			<linearGradient id="SVGID_00000132802638394419327280000015326994240442040209_" gradientUnits="userSpaceOnUse" x1="82.6524" y1="-115.1844" x2="85.8829" y2="-115.1844">
			<stop  offset="0" style="stop-color:#111A18"/>
			<stop  offset="1" style="stop-color:#3F5B55"/>
		</linearGradient>
		<path style="fill:url(#SVGID_00000132802638394419327280000015326994240442040209_);" d="M85.88-116.12v0.03
			c-1.08,0.62-2.15,1.23-3.23,1.85c0-0.01,0-0.01,0-0.02L85.88-116.12z"/>
	</g>
	
		<linearGradient id="SVGID_00000145017645771972349160000007652130294906054565_" gradientUnits="userSpaceOnUse" x1="80.9118" y1="-328.9457" x2="324.9327" y2="-328.9457">
		<stop  offset="0" style="stop-color:#111A18"/>
		<stop  offset="1" style="stop-color:#3F5B55"/>
	</linearGradient>
	<path style="fill:url(#SVGID_00000145017645771972349160000007652130294906054565_);" d="M228.25-197.44
		c-50.43,28.81-95.39,54.51-142.37,81.35v-0.03l-3.23,1.86l-1.37,0.78v-18.25c-0.01-0.46-0.02-0.92-0.02-1.38
		c-0.07-106.99,0.2-213.98-0.35-320.97c-0.07-12.98,4-19.98,15.29-26.17c33.9-18.57,67.61-37.59,100.31-58.16
		c13.97-8.79,23.92-7.52,36.86,1.26c29.09,19.73,59.18,37.97,91.56,58.52c-38.78,22.29-74.61,43.59-111.17,63.53
		c-13.04,7.12-18.54,15.04-18.11,30.56c1.24,44.6,1.2,89.28,0.17,133.89C195.27-227.29,195.05-205.7,228.25-197.44z"/>
</g>
<g>
	<g>
		
			<linearGradient id="SVGID_00000016778621393762792190000003266837676940454304_" gradientUnits="userSpaceOnUse" x1="80.351" y1="293.0695" x2="523.9016" y2="293.0695">
			<stop  offset="0" style="stop-color:#111A18"/>
			<stop  offset="1" style="stop-color:#3F5B55"/>
		</linearGradient>
		<path style="fill:url(#SVGID_00000016778621393762792190000003266837676940454304_);" d="M523.26,368.15
			c-0.13,6.55-3.85,16.04-8.93,19.01c-80.89,47.35-162.17,94.01-243.44,140.7l-1.99,1.15l-24.95,14.4l-2.98,1.72v-3.44
			c0-42.21-0.4-83.62,0.6-125c0.1-4.36,7.86-9.56,13.09-12.61c53.15-30.97,106.5-61.58,162.93-94.1
			c-71.8-45.32-140.27-88.8-209.26-131.44c-4.34-2.68-13.77-0.55-19.14,2.41c-34.9,19.22-69.33,39.29-107.98,61.4V181.8
			c0-15.74-0.38-31.58-0.82-47.23c-0.55-19.39,4.81-29.73,21.98-38.5c30.29-15.47,59.37-33.36,88.59-50.85
			c8.81-5.29,15.22-5.95,24.6,0.04c98.26,62.79,197.02,124.78,295.19,187.7c6.21,3.99,12.01,13.79,12.25,21.08
			C524.25,292.05,524.06,330.12,523.26,368.15z"/>
		
			<linearGradient id="SVGID_00000127757260519351873980000015399876858286146954_" gradientUnits="userSpaceOnUse" x1="82.6524" y1="673.2411" x2="85.8829" y2="673.2411">
			<stop  offset="0" style="stop-color:#111A18"/>
			<stop  offset="1" style="stop-color:#3F5B55"/>
		</linearGradient>
		<path style="fill:url(#SVGID_00000127757260519351873980000015399876858286146954_);" d="M85.88,672.3v0.03
			c-1.08,0.62-2.15,1.23-3.23,1.85c0-0.01,0-0.01,0-0.02L85.88,672.3z"/>
	</g>
	
		<linearGradient id="SVGID_00000075845125803963923550000009283666499227170972_" gradientUnits="userSpaceOnUse" x1="80.9118" y1="459.4798" x2="324.9327" y2="459.4798">
		<stop  offset="0" style="stop-color:#111A18"/>
		<stop  offset="1" style="stop-color:#3F5B55"/>
	</linearGradient>
	<path style="fill:url(#SVGID_00000075845125803963923550000009283666499227170972_);" d="M228.25,590.98
		c-50.43,28.81-95.39,54.51-142.37,81.35v-0.03l-3.23,1.86l-1.37,0.78v-18.25c-0.01-0.46-0.02-0.92-0.02-1.38
		c-0.07-106.99,0.2-213.98-0.35-320.97c-0.07-12.98,4-19.98,15.29-26.17c33.9-18.57,67.61-37.59,100.31-58.16
		c13.97-8.79,23.92-7.52,36.86,1.26c29.09,19.73,59.18,37.97,91.56,58.52c-38.78,22.29-74.61,43.59-111.17,63.53
		c-13.04,7.12-18.54,15.04-18.11,30.56c1.24,44.6,1.2,89.28,0.17,133.89C195.27,561.13,195.05,582.72,228.25,590.98z"/>
</g>
</svg>
